<svg xmlns="http://www.w3.org/2000/svg" width="1200" height="800" viewBox="0 0 1200 800" role="img" aria-labelledby="title">
  <title id="title">龙脊梯田 scene</title>
  <defs>
    <linearGradient id="sky" x1="0" y1="0" x2="0" y2="1"><stop stop-color="#dfeade"/><stop offset="1" stop-color="#becaa6"/></linearGradient>
    <linearGradient id="deep" x1="0" y1="0" x2="0" y2="1"><stop stop-color="#908154"/><stop offset="1" stop-color="#1e3b35"/></linearGradient>
    <linearGradient id="water" x1="0" y1="0" x2="0" y2="1"><stop stop-color="#86b5b8"/><stop offset="1" stop-color="#397b82"/></linearGradient>
    <linearGradient id="warm" x1="0" y1="0" x2="1" y2="1"><stop stop-color="#e8b76b"/><stop offset="1" stop-color="#9d5934"/></linearGradient>
    <filter id="grain"><feTurbulence type="fractalNoise" baseFrequency=".8" numOctaves="2" seed="7"/><feColorMatrix values="1 0 0 0 0 0 1 0 0 0 0 0 1 0 0 0 0 0 .045 0"/></filter>
  </defs>
  <rect width="1200" height="800" fill="url(#sky)"/>
  <g transform="translate(592 406) scale(0.965 0.965) translate(-600 -400)"><path d="M0 400 Q260 260 520 390 Q780 250 1200 380 L1200 800 L0 800Z" fill="#7b9664"/><g stroke="#d9dc94" stroke-width="26" opacity=".86"><path d="M0 470 Q300 390 600 470 Q900 390 1200 460" fill="none"/><path d="M0 518 Q300 438 600 518 Q900 438 1200 508" fill="none"/><path d="M0 566 Q300 486 600 566 Q900 486 1200 556" fill="none"/><path d="M0 614 Q300 534 600 614 Q900 534 1200 604" fill="none"/><path d="M0 662 Q300 582 600 662 Q900 582 1200 652" fill="none"/><path d="M0 710 Q300 630 600 710 Q900 630 1200 700" fill="none"/><path d="M0 758 Q300 678 600 758 Q900 678 1200 748" fill="none"/></g><g transform="translate(260 330) scale(0.85)" fill="#fff" opacity="0.55"><ellipse cx="0" cy="0" rx="76" ry="21"/><ellipse cx="-58" cy="8" rx="64" ry="16"/><ellipse cx="58" cy="8" rx="68" ry="17"/></g></g><g transform="translate(570 247) scale(1.1099999999999999)" fill="#908154" opacity=".82"><path d="M-34 10 Q0 -26 34 10 Q0 34 -34 10Z"/><circle cx="0" cy="8" r="7"/></g>
  <rect width="1200" height="800" filter="url(#grain)" opacity=".55"/>
</svg>