<svg xmlns="http://www.w3.org/2000/svg" width="1200" height="800" viewBox="0 0 1200 800" role="img" aria-labelledby="title">
  <title id="title">布达拉宫 scene</title>
  <defs>
    <linearGradient id="sky" x1="0" y1="0" x2="0" y2="1"><stop stop-color="#cac8dd"/><stop offset="1" stop-color="#dababb"/></linearGradient>
    <linearGradient id="deep" x1="0" y1="0" x2="0" y2="1"><stop stop-color="#8d3e32"/><stop offset="1" stop-color="#1e3b35"/></linearGradient>
    <linearGradient id="water" x1="0" y1="0" x2="0" y2="1"><stop stop-color="#86b5b8"/><stop offset="1" stop-color="#397b82"/></linearGradient>
    <linearGradient id="warm" x1="0" y1="0" x2="1" y2="1"><stop stop-color="#e8b76b"/><stop offset="1" stop-color="#9d5934"/></linearGradient>
    <filter id="grain"><feTurbulence type="fractalNoise" baseFrequency=".8" numOctaves="2" seed="7"/><feColorMatrix values="1 0 0 0 0 0 1 0 0 0 0 0 1 0 0 0 0 0 .045 0"/></filter>
  </defs>
  <rect width="1200" height="800" fill="url(#sky)"/>
  <g transform="translate(528 388) scale(-0.9099999999999999 0.9099999999999999) translate(-600 -400)"><path d="M0 620 Q280 430 600 520 Q900 390 1200 590 L1200 800 L0 800Z" fill="#8a7d68"/><g><rect x="300" y="340" width="600" height="270" fill="#f3efe6" stroke="#8e6b55" stroke-width="8"/><rect x="420" y="260" width="360" height="350" fill="#9f4b43" stroke="#6f4238" stroke-width="8"/><path d="M380 340 H820" stroke="#c49a52" stroke-width="16"/><rect x="500" y="220" width="200" height="60" fill="#d3a24e"/></g><g transform="translate(240 380) scale(0.8)" fill="#fff" opacity="0.55"><ellipse cx="0" cy="0" rx="76" ry="21"/><ellipse cx="-58" cy="8" rx="64" ry="16"/><ellipse cx="58" cy="8" rx="68" ry="17"/></g><g transform="translate(980 360) scale(0.75)" fill="#fff" opacity="0.5"><ellipse cx="0" cy="0" rx="76" ry="21"/><ellipse cx="-58" cy="8" rx="64" ry="16"/><ellipse cx="58" cy="8" rx="68" ry="17"/></g></g><g transform="translate(707 -340) scale(0.63)" fill="#8d3e32" opacity=".82"><path d="M-30 -16 L30 -16 L18 16 L-18 16Z"/><circle cx="0" cy="-25" r="8"/></g>
  <rect width="1200" height="800" filter="url(#grain)" opacity=".55"/>
</svg>