<svg xmlns="http://www.w3.org/2000/svg" width="1200" height="800" viewBox="0 0 1200 800" role="img" aria-labelledby="title">
  <title id="title">少林寺 scene</title>
  <defs>
    <linearGradient id="sky" x1="0" y1="0" x2="0" y2="1"><stop stop-color="#e8e4d7"/><stop offset="1" stop-color="#c5c6b1"/></linearGradient>
    <linearGradient id="deep" x1="0" y1="0" x2="0" y2="1"><stop stop-color="#8c6a4a"/><stop offset="1" stop-color="#1e3b35"/></linearGradient>
    <linearGradient id="water" x1="0" y1="0" x2="0" y2="1"><stop stop-color="#86b5b8"/><stop offset="1" stop-color="#397b82"/></linearGradient>
    <linearGradient id="warm" x1="0" y1="0" x2="1" y2="1"><stop stop-color="#e8b76b"/><stop offset="1" stop-color="#9d5934"/></linearGradient>
    <filter id="grain"><feTurbulence type="fractalNoise" baseFrequency=".8" numOctaves="2" seed="7"/><feColorMatrix values="1 0 0 0 0 0 1 0 0 0 0 0 1 0 0 0 0 0 .045 0"/></filter>
  </defs>
  <rect width="1200" height="800" fill="url(#sky)"/>
  <g transform="translate(584 412) scale(-0.998 0.998) translate(-600 -400)"><path d="M0 550 Q220 430 450 520 Q720 400 1200 520 L1200 800 L0 800Z" fill="#71856f"/><g><rect x="390" y="390" width="420" height="240" fill="#eee2c9"/><path d="M320 405 L600 275 L880 405Z" fill="#8d4e3d"/><path d="M380 520 H820" stroke="#9b6f4e" stroke-width="18"/></g><g fill="#8d4e3d"><rect x="420" y="365" width="24" height="55" rx="10"/><rect x="500" y="365" width="24" height="55" rx="10"/><rect x="580" y="365" width="24" height="55" rx="10"/><rect x="660" y="365" width="24" height="55" rx="10"/><rect x="740" y="365" width="24" height="55" rx="10"/></g><g transform="translate(180 500) scale(0.7)"><rect x="-4" y="8" width="8" height="48" rx="4" fill="#5d4b37"/><circle cx="0" cy="0" r="34" fill="#58765a"/><circle cx="-24" cy="12" r="24" fill="#58765a" opacity=".9"/><circle cx="25" cy="12" r="26" fill="#58765a" opacity=".86"/></g><g transform="translate(1020 500) scale(0.72)"><rect x="-4" y="8" width="8" height="48" rx="4" fill="#5d4b37"/><circle cx="0" cy="0" r="34" fill="#58765a"/><circle cx="-24" cy="12" r="24" fill="#58765a" opacity=".9"/><circle cx="25" cy="12" r="26" fill="#58765a" opacity=".86"/></g></g><g transform="translate(237 249) scale(1.1099999999999999)" fill="#8c6a4a" opacity=".82"><path d="M0 -34 L28 0 L0 34 L-28 0Z"/><circle cx="0" cy="0" r="7"/></g>
  <rect width="1200" height="800" filter="url(#grain)" opacity=".55"/>
</svg>