<svg xmlns="http://www.w3.org/2000/svg" width="1200" height="800" viewBox="0 0 1200 800" role="img" aria-labelledby="title">
  <title id="title">天安门广场 scene</title>
  <defs>
    <linearGradient id="sky" x1="0" y1="0" x2="0" y2="1"><stop stop-color="#c5c9c8"/><stop offset="1" stop-color="#acb6b6"/></linearGradient>
    <linearGradient id="deep" x1="0" y1="0" x2="0" y2="1"><stop stop-color="#335c7a"/><stop offset="1" stop-color="#1e3b35"/></linearGradient>
    <linearGradient id="water" x1="0" y1="0" x2="0" y2="1"><stop stop-color="#86b5b8"/><stop offset="1" stop-color="#397b82"/></linearGradient>
    <linearGradient id="warm" x1="0" y1="0" x2="1" y2="1"><stop stop-color="#e8b76b"/><stop offset="1" stop-color="#9d5934"/></linearGradient>
    <filter id="grain"><feTurbulence type="fractalNoise" baseFrequency=".8" numOctaves="2" seed="7"/><feColorMatrix values="1 0 0 0 0 0 1 0 0 0 0 0 1 0 0 0 0 0 .045 0"/></filter>
  </defs>
  <rect width="1200" height="800" fill="url(#sky)"/>
  <g transform="translate(520 382) scale(0.9099999999999999 0.9099999999999999) translate(-600 -400)"><rect y="610" width="1200" height="190" fill="#9b7654"/><rect x="380" y="350" width="440" height="280" fill="#a84235"/><path d="M320 360 L600 235 L880 360Z" fill="#d68a45"/><rect x="545" y="430" width="110" height="200" fill="#6e342d"/><g fill="#f0d29d"><rect x="400" y="320" width="26" height="65" rx="12"/><rect x="462" y="320" width="26" height="65" rx="12"/><rect x="524" y="320" width="26" height="65" rx="12"/><rect x="586" y="320" width="26" height="65" rx="12"/><rect x="648" y="320" width="26" height="65" rx="12"/><rect x="710" y="320" width="26" height="65" rx="12"/><rect x="772" y="320" width="26" height="65" rx="12"/></g></g><g transform="translate(244 -281) scale(0.51)" fill="#335c7a" opacity=".82"><path d="M0 -28 L20 12 H-20Z"/><circle cx="0" cy="-8" r="8"/></g>
  <rect width="1200" height="800" filter="url(#grain)" opacity=".55"/>
</svg>